<?xml version="1.0" standalone="no"?>
<!DOCTYPE svg PUBLIC "-//W3C//DTD SVG 20010904//EN"
 "http://www.w3.org/TR/2001/REC-SVG-20010904/DTD/svg10.dtd">
<svg version="1.0" xmlns="http://www.w3.org/2000/svg"
 width="480.000000pt" height="480.000000pt" viewBox="0 0 480.000000 480.000000"
 preserveAspectRatio="xMidYMid meet">

<g transform="translate(0.000000,480.000000) scale(0.100000,-0.100000)"
fill="#000000" stroke="none">
<path d="M67 4793 c-13 -22 -17 -97 -8 -171 7 -70 18 -102 70 -210 102 -213
103 -261 9 -467 -65 -142 -80 -184 -72 -209 3 -12 33 -79 67 -150 57 -122 61
-135 65 -215 5 -114 -14 -192 -90 -366 -54 -123 -62 -148 -62 -205 0 -58 6
-77 56 -185 66 -141 82 -195 73 -244 -4 -20 -31 -88 -60 -151 -94 -205 -95
-213 -11 -406 67 -157 96 -263 96 -356 0 -82 -20 -146 -90 -289 -60 -122 -60
-115 16 -280 30 -63 61 -146 71 -184 23 -92 9 -154 -69 -315 -53 -109 -62
-136 -70 -210 -5 -48 -5 -102 0 -125 l8 -40 65 3 c75 4 130 20 254 75 261 115
346 118 570 21 157 -68 192 -67 385 11 143 58 146 58 240 57 121 -2 163 -12
340 -82 80 -32 166 -61 191 -65 46 -7 87 6 245 75 l51 23 104 -49 c141 -65
180 -65 339 1 179 74 218 85 318 94 119 10 166 1 321 -61 165 -67 208 -69 336
-15 165 71 195 79 276 79 97 0 132 -10 316 -88 119 -50 170 -67 234 -75 51 -6
86 -6 91 -1 6 6 8 61 6 123 l-3 114 -62 130 c-111 233 -111 269 2 512 34 73
55 132 55 154 0 23 -18 72 -48 135 -27 54 -57 124 -67 154 -39 116 -13 277 75
466 54 118 73 184 64 231 -3 21 -34 99 -68 173 -82 182 -83 208 -4 375 95 202
96 221 14 403 -56 125 -83 211 -95 295 -16 111 3 186 89 356 24 49 40 94 40
116 0 23 -21 81 -54 153 -115 248 -114 293 9 543 l56 113 -3 116 -3 115 -60
-3 c-85 -5 -122 -16 -275 -82 -169 -73 -204 -82 -310 -84 -82 0 -90 2 -230 59
-184 76 -198 76 -376 7 -165 -64 -206 -74 -297 -66 -110 8 -160 22 -320 86
-191 77 -215 78 -356 14 -57 -25 -109 -46 -117 -46 -8 0 -60 21 -116 46 -141
64 -164 63 -355 -14 -163 -65 -211 -78 -325 -87 -93 -7 -134 2 -298 68 -169
67 -196 67 -356 0 -234 -98 -291 -96 -569 22 -104 45 -169 66 -210 70 -33 4
-70 8 -82 11 -12 2 -24 1 -26 -3z m4393 -2388 l0 -2065 -2055 2 -2055 3 0
2058 c0 1131 0 2059 0 2062 0 3 925 5 2055 5 l2055 0 0 -2065z"/>
<path d="M450 2400 l0 -1960 1965 0 1965 0 0 1960 0 1960 -1965 0 -1965 0 0
-1960z m3855 3 l0 -1898 -1902 -3 -1903 -2 0 1898 c0 1044 2 1901 4 1903 2 2
859 3 1903 2 l1898 -3 0 -1897z"/>
<path d="M3750 3190 c-9 -6 -44 -7 -87 -4 l-73 7 0 -70 c0 -40 5 -74 12 -81 8
-8 46 -12 103 -12 51 0 95 -3 98 -7 4 -3 -24 -39 -62 -78 -64 -67 -90 -109
-78 -122 7 -6 81 66 96 94 6 13 30 32 52 43 l40 21 -3 72 -3 72 -107 3 c-102
3 -108 4 -108 24 0 17 4 19 28 13 63 -16 91 -16 118 -2 16 8 35 12 43 9 8 -3
12 1 9 9 -6 17 -57 23 -78 9z"/>
<path d="M990 3097 c0 -41 4 -56 16 -61 14 -5 13 -10 -5 -40 -16 -26 -21 -50
-21 -105 l0 -71 135 0 c133 0 135 0 136 23 8 111 4 268 -5 276 -6 5 -59 11
-116 13 -58 2 -113 7 -122 12 -16 7 -18 2 -18 -47z m224 -89 c21 -30 20 -44
-4 -68 -26 -26 -124 -28 -152 -3 -22 20 -23 51 -1 75 12 14 31 18 79 18 54 0
65 -3 78 -22z"/>
<path d="M1764 3139 c-8 -14 7 -93 20 -101 7 -5 6 -16 -7 -37 -23 -39 -25
-181 -2 -181 8 0 15 7 15 15 0 9 9 33 19 54 13 25 16 42 10 52 -16 25 -10 68
10 79 28 14 124 12 146 -4 21 -15 23 -69 4 -92 -7 -8 -30 -14 -59 -14 -47 0
-48 0 -58 -40 -5 -21 -7 -42 -4 -45 3 -3 38 -5 77 -5 55 0 76 4 86 16 17 21
24 261 7 281 -6 7 -30 13 -54 13 -37 0 -47 -5 -66 -30 -27 -37 -38 -38 -38 -5
0 19 -5 25 -22 25 -13 0 -35 7 -50 14 -17 9 -30 11 -34 5z"/>
<path d="M2070 3095 c0 -43 4 -61 17 -70 16 -12 16 -14 -1 -40 -14 -22 -17
-38 -11 -74 3 -25 7 -56 7 -69 0 -21 4 -23 51 -20 51 3 52 3 58 41 5 30 2 40
-12 47 -40 22 -67 70 -39 70 6 0 55 -34 110 -77 55 -42 102 -74 104 -72 1 2 8
24 14 49 10 40 9 47 -8 65 -26 27 -25 60 1 78 16 12 20 23 17 58 -3 42 -4 44
-38 47 -19 2 -39 8 -45 13 -19 19 -25 8 -25 -46 0 -48 2 -55 20 -55 21 0 26
-16 10 -40 -8 -12 -12 -12 -32 6 -13 11 -48 38 -78 59 -30 21 -70 49 -87 63
l-33 24 0 -57z"/>
<path d="M2826 3128 c-13 -49 -7 -78 19 -90 l25 -11 -20 -22 c-17 -18 -22 -37
-23 -101 l-2 -79 127 -3 127 -3 7 28 c3 15 9 39 13 53 4 14 4 39 -1 55 -4 17
-5 56 -2 87 8 74 -2 88 -67 88 -44 0 -51 -3 -59 -26 -18 -47 -8 -138 14 -131
6 2 12 14 14 26 5 30 32 39 48 16 36 -49 -1 -95 -75 -95 -79 0 -110 56 -55 99
22 17 25 27 22 63 -3 41 -5 43 -38 46 -19 2 -39 8 -44 13 -15 14 -23 11 -30
-13z"/>
<path d="M3134 3136 c-3 -7 -4 -33 -2 -57 3 -43 4 -44 40 -47 45 -4 47 -9 50
-129 2 -65 6 -81 16 -74 12 7 23 118 24 234 0 58 -7 67 -51 67 -22 0 -43 5
-46 10 -9 14 -25 12 -31 -4z"/>
<path d="M3294 3137 c-3 -8 -4 -34 -2 -58 l3 -44 94 -3 c129 -4 136 -11 68
-81 -76 -79 -103 -121 -76 -121 10 0 49 37 105 101 11 13 34 32 52 41 31 16
32 20 32 78 0 56 -2 61 -26 70 -14 6 -66 10 -115 10 -50 0 -99 5 -110 10 -15
8 -21 7 -25 -3z"/>
<path d="M1292 3089 c3 -51 4 -54 36 -63 32 -9 34 -11 30 -53 -3 -42 -2 -44
22 -41 25 3 25 4 25 93 l0 90 -35 6 c-19 4 -45 10 -58 14 -22 7 -23 6 -20 -46z"/>
<path d="M1452 3085 l3 -50 105 -5 105 -5 5 -100 c4 -78 8 -100 19 -100 8 0
19 14 23 30 14 45 10 248 -5 262 -7 7 -60 13 -135 15 l-123 3 3 -50z"/>
<path d="M2657 3127 c-2 -7 -2 -30 2 -52 5 -34 11 -41 39 -49 32 -9 34 -11 30
-53 -3 -39 -1 -43 19 -43 29 0 35 24 31 115 l-3 70 -35 3 c-19 2 -39 8 -44 13
-14 13 -33 11 -39 -4z"/>
<path d="M3303 2979 c-7 -7 -13 -34 -13 -60 0 -26 -4 -59 -10 -73 -8 -23 -6
-28 28 -51 26 -18 50 -25 84 -25 27 0 48 5 48 10 0 6 -14 10 -31 10 -50 0 -67
15 -78 72 -6 29 -12 70 -14 91 -2 31 -4 36 -14 26z"/>
<path d="M990 2408 l0 -172 42 -37 43 -36 -33 -37 c-83 -95 -94 -155 -53 -296
32 -110 38 -159 21 -190 -10 -18 -3 -19 155 -22 l165 -3 0 48 c0 26 7 80 16
118 9 39 14 72 12 73 -1 2 -40 27 -86 56 -45 29 -89 62 -97 73 -19 27 -20 107
-2 107 20 0 84 -45 214 -151 121 -98 420 -319 432 -319 4 0 22 68 40 151 l32
152 -45 46 c-60 61 -80 109 -66 161 11 42 56 86 97 96 l25 7 -4 134 c-2 105
-6 136 -18 143 -8 5 -56 10 -107 10 -89 0 -94 1 -127 31 -22 19 -44 29 -58 27
-29 -4 -37 -43 -37 -189 -1 -147 4 -152 154 -159 5 0 -7 -17 -27 -37 -20 -21
-38 -51 -40 -66 l-3 -28 -67 60 c-37 32 -98 81 -135 107 -166 117 -346 248
-384 280 -22 19 -45 34 -50 34 -5 0 -9 -76 -9 -172z"/>
<path d="M2000 2550 c-18 -18 -20 -33 -20 -144 0 -153 2 -156 123 -191 49 -13
93 -27 98 -31 14 -8 10 -122 -6 -189 -21 -87 -21 -85 35 -85 118 0 134 32 138
275 4 196 -6 271 -39 301 -17 15 -41 20 -109 22 -67 3 -93 8 -107 22 -47 43
-83 50 -113 20z"/>
<path d="M3018 2453 c-2 -144 1 -184 13 -199 6 -7 33 -18 62 -24 29 -7 55 -14
58 -16 3 -2 -8 -31 -24 -65 -29 -61 -29 -63 -17 -133 7 -39 15 -83 17 -98 5
-28 5 -28 -54 -28 l-60 0 -27 -132 c-14 -73 -26 -136 -26 -140 0 -5 78 -8 174
-8 l174 0 11 68 c7 37 17 101 24 142 l12 74 -40 21 c-58 31 -85 76 -85 142 0
60 15 95 55 133 26 24 32 25 183 28 149 3 159 2 185 -18 l27 -21 0 -285 0
-284 53 0 53 0 29 145 c28 143 28 146 12 199 -20 62 -20 121 -3 306 14 154 9
187 -35 224 l-31 26 -286 0 c-259 0 -291 2 -328 19 -23 10 -45 24 -48 30 -4 6
-23 11 -42 11 l-34 0 -2 -117z"/>
<path d="M2543 2553 c-10 -3 -13 -43 -13 -149 0 -141 1 -146 25 -169 21 -22
33 -25 93 -25 56 0 75 -4 97 -22 75 -59 74 -218 -3 -278 -21 -17 -40 -20 -127
-20 -117 0 -115 2 -115 -97 0 -28 -9 -80 -20 -115 -11 -34 -20 -64 -20 -65 0
-2 99 -3 219 -3 l219 0 7 63 c4 34 13 96 20 137 12 72 12 77 -12 137 -28 69
-29 102 -18 358 9 205 13 198 -128 206 -85 4 -110 9 -135 27 -29 21 -62 27
-89 15z"/>
</g>
</svg>
